<svg version="1.1" viewBox="0.0 0.0 600.0 371.0" fill="none" stroke="none" stroke-linecap="square" stroke-miterlimit="10" width="600" height="371" xmlns:xlink="http://www.w3.org/1999/xlink" xmlns="http://www.w3.org/2000/svg"><path fill="#ffffff" d="M0 0L600.0 0L600.0 371.0L0 371.0L0 0Z" fill-rule="nonzero"/><path stroke="#333333" stroke-width="1.0" stroke-linecap="butt" d="M45.5 298.5L581.5 298.5" fill-rule="nonzero"/><path stroke="#cccccc" stroke-width="1.0" stroke-linecap="butt" d="M45.5 239.5L581.5 239.5" fill-rule="nonzero"/><path stroke="#cccccc" stroke-width="1.0" stroke-linecap="butt" d="M45.5 180.5L581.5 180.5" fill-rule="nonzero"/><path stroke="#cccccc" stroke-width="1.0" stroke-linecap="butt" d="M45.5 121.5L581.5 121.5" fill-rule="nonzero"/><path stroke="#cccccc" stroke-width="1.0" stroke-linecap="butt" d="M45.5 62.5L581.5 62.5" fill-rule="nonzero"/><clipPath id="id_0"><path d="M45.55 62.416668L581.45 62.416668L581.45 298.45L45.55 298.45L45.55 62.416668Z" clip-rule="nonzero"/></clipPath><path stroke="#000000" stroke-width="0.0" stroke-linecap="butt" stroke-opacity="0.0" clip-path="url(#id_0)" d="M111.0 238.0L46.0 238.0L46.0 230.0C46.0 228.89543 46.89543 228.0 48.0 228.0L109.0 228.0C110.10457 228.0 111.0 228.89543 111.0 230.0Z" fill-rule="nonzero"/><path fill="#46c487" clip-path="url(#id_0)" d="M111.0 238.0L46.0 238.0L46.0 230.0C46.0 228.89543 46.89543 228.0 48.0 228.0L109.0 228.0C110.10457 228.0 111.0 228.89543 111.0 230.0Z" fill-rule="nonzero"/><path stroke="#000000" stroke-width="0.0" stroke-linecap="butt" stroke-opacity="0.0" clip-path="url(#id_0)" d="M111.0 250.0L46.0 250.0L46.0 239.0L111.0 239.0Z" fill-rule="nonzero"/><path fill="#46c487" clip-path="url(#id_0)" d="M111.0 250.0L46.0 250.0L46.0 239.0L111.0 239.0Z" fill-rule="nonzero"/><path stroke="#000000" stroke-width="0.0" stroke-linecap="butt" stroke-opacity="0.0" clip-path="url(#id_0)" d="M111.0 262.0L46.0 262.0L46.0 251.0L111.0 251.0Z" fill-rule="nonzero"/><path fill="#46c487" clip-path="url(#id_0)" d="M111.0 262.0L46.0 262.0L46.0 251.0L111.0 251.0Z" fill-rule="nonzero"/><path stroke="#000000" stroke-width="0.0" stroke-linecap="butt" stroke-opacity="0.0" clip-path="url(#id_0)" d="M111.0 274.0L46.0 274.0L46.0 263.0L111.0 263.0Z" fill-rule="nonzero"/><path fill="#46c487" clip-path="url(#id_0)" d="M111.0 274.0L46.0 274.0L46.0 263.0L111.0 263.0Z" fill-rule="nonzero"/><path stroke="#000000" stroke-width="0.0" stroke-linecap="butt" stroke-opacity="0.0" clip-path="url(#id_0)" d="M111.0 286.0L46.0 286.0L46.0 275.0L111.0 275.0Z" fill-rule="nonzero"/><path fill="#46c487" clip-path="url(#id_0)" d="M111.0 286.0L46.0 286.0L46.0 275.0L111.0 275.0Z" fill-rule="nonzero"/><path stroke="#000000" stroke-width="0.0" stroke-linecap="butt" stroke-opacity="0.0" clip-path="url(#id_0)" d="M111.0 298.0L46.0 298.0L46.0 287.0L111.0 287.0Z" fill-rule="nonzero"/><path fill="#46c487" clip-path="url(#id_0)" d="M111.0 298.0L46.0 298.0L46.0 287.0L111.0 287.0Z" fill-rule="nonzero"/><path stroke="#000000" stroke-width="0.0" stroke-linecap="butt" stroke-opacity="0.0" clip-path="url(#id_0)" d="M245.0 156.0L180.0 156.0L180.0 147.0C180.0 145.89543 180.89543 145.0 182.0 145.0L243.0 145.0C244.10457 145.0 245.0 145.89543 245.0 147.0Z" fill-rule="nonzero"/><path fill="#46c487" clip-path="url(#id_0)" d="M245.0 156.0L180.0 156.0L180.0 147.0C180.0 145.89543 180.89543 145.0 182.0 145.0L243.0 145.0C244.10457 145.0 245.0 145.89543 245.0 147.0Z" fill-rule="nonzero"/><path stroke="#000000" stroke-width="0.0" stroke-linecap="butt" stroke-opacity="0.0" clip-path="url(#id_0)" d="M245.0 168.0L180.0 168.0L180.0 157.0L245.0 157.0Z" fill-rule="nonzero"/><path fill="#46c487" clip-path="url(#id_0)" d="M245.0 168.0L180.0 168.0L180.0 157.0L245.0 157.0Z" fill-rule="nonzero"/><path stroke="#000000" stroke-width="0.0" stroke-linecap="butt" stroke-opacity="0.0" clip-path="url(#id_0)" d="M245.0 179.0L180.0 179.0L180.0 169.0L245.0 169.0Z" fill-rule="nonzero"/><path fill="#46c487" clip-path="url(#id_0)" d="M245.0 179.0L180.0 179.0L180.0 169.0L245.0 169.0Z" fill-rule="nonzero"/><path stroke="#000000" stroke-width="0.0" stroke-linecap="butt" stroke-opacity="0.0" clip-path="url(#id_0)" d="M245.0 191.0L180.0 191.0L180.0 180.0L245.0 180.0Z" fill-rule="nonzero"/><path fill="#46c487" clip-path="url(#id_0)" d="M245.0 191.0L180.0 191.0L180.0 180.0L245.0 180.0Z" fill-rule="nonzero"/><path stroke="#000000" stroke-width="0.0" stroke-linecap="butt" stroke-opacity="0.0" clip-path="url(#id_0)" d="M245.0 203.0L180.0 203.0L180.0 192.0L245.0 192.0Z" fill-rule="nonzero"/><path fill="#46c487" clip-path="url(#id_0)" d="M245.0 203.0L180.0 203.0L180.0 192.0L245.0 192.0Z" fill-rule="nonzero"/><path stroke="#000000" stroke-width="0.0" stroke-linecap="butt" stroke-opacity="0.0" clip-path="url(#id_0)" d="M245.0 215.0L180.0 215.0L180.0 204.0L245.0 204.0Z" fill-rule="nonzero"/><path fill="#46c487" clip-path="url(#id_0)" d="M245.0 215.0L180.0 215.0L180.0 204.0L245.0 204.0Z" fill-rule="nonzero"/><path stroke="#000000" stroke-width="0.0" stroke-linecap="butt" stroke-opacity="0.0" clip-path="url(#id_0)" d="M245.0 227.0L180.0 227.0L180.0 216.0L245.0 216.0Z" fill-rule="nonzero"/><path fill="#46c487" clip-path="url(#id_0)" d="M245.0 227.0L180.0 227.0L180.0 216.0L245.0 216.0Z" fill-rule="nonzero"/><path stroke="#000000" stroke-width="0.0" stroke-linecap="butt" stroke-opacity="0.0" clip-path="url(#id_0)" d="M245.0 238.0L180.0 238.0L180.0 228.0L245.0 228.0Z" fill-rule="nonzero"/><path fill="#46c487" clip-path="url(#id_0)" d="M245.0 238.0L180.0 238.0L180.0 228.0L245.0 228.0Z" fill-rule="nonzero"/><path stroke="#000000" stroke-width="0.0" stroke-linecap="butt" stroke-opacity="0.0" clip-path="url(#id_0)" d="M245.0 250.0L180.0 250.0L180.0 239.0L245.0 239.0Z" fill-rule="nonzero"/><path fill="#46c487" clip-path="url(#id_0)" d="M245.0 250.0L180.0 250.0L180.0 239.0L245.0 239.0Z" fill-rule="nonzero"/><path stroke="#000000" stroke-width="0.0" stroke-linecap="butt" stroke-opacity="0.0" clip-path="url(#id_0)" d="M245.0 262.0L180.0 262.0L180.0 251.0L245.0 251.0Z" fill-rule="nonzero"/><path fill="#46c487" clip-path="url(#id_0)" d="M245.0 262.0L180.0 262.0L180.0 251.0L245.0 251.0Z" fill-rule="nonzero"/><path stroke="#000000" stroke-width="0.0" stroke-linecap="butt" stroke-opacity="0.0" clip-path="url(#id_0)" d="M245.0 274.0L180.0 274.0L180.0 263.0L245.0 263.0Z" fill-rule="nonzero"/><path fill="#46c487" clip-path="url(#id_0)" d="M245.0 274.0L180.0 274.0L180.0 263.0L245.0 263.0Z" fill-rule="nonzero"/><path stroke="#000000" stroke-width="0.0" stroke-linecap="butt" stroke-opacity="0.0" clip-path="url(#id_0)" d="M245.0 286.0L180.0 286.0L180.0 275.0L245.0 275.0Z" fill-rule="nonzero"/><path fill="#46c487" clip-path="url(#id_0)" d="M245.0 286.0L180.0 286.0L180.0 275.0L245.0 275.0Z" fill-rule="nonzero"/><path stroke="#000000" stroke-width="0.0" stroke-linecap="butt" stroke-opacity="0.0" clip-path="url(#id_0)" d="M245.0 298.0L180.0 298.0L180.0 287.0L245.0 287.0Z" fill-rule="nonzero"/><path fill="#46c487" clip-path="url(#id_0)" d="M245.0 298.0L180.0 298.0L180.0 287.0L245.0 287.0Z" fill-rule="nonzero"/><path stroke="#000000" stroke-width="0.0" stroke-linecap="butt" stroke-opacity="0.0" clip-path="url(#id_0)" d="M379.0 85.0L314.0 85.0L314.0 76.0C314.0 74.89543 314.89542 74.0 316.0 74.0L377.0 74.0C378.10458 74.0 379.0 74.89543 379.0 76.0Z" fill-rule="nonzero"/><path fill="#46c487" clip-path="url(#id_0)" d="M379.0 85.0L314.0 85.0L314.0 76.0C314.0 74.89543 314.89542 74.0 316.0 74.0L377.0 74.0C378.10458 74.0 379.0 74.89543 379.0 76.0Z" fill-rule="nonzero"/><path stroke="#000000" stroke-width="0.0" stroke-linecap="butt" stroke-opacity="0.0" clip-path="url(#id_0)" d="M379.0 97.0L314.0 97.0L314.0 86.0L379.0 86.0Z" fill-rule="nonzero"/><path fill="#46c487" clip-path="url(#id_0)" d="M379.0 97.0L314.0 97.0L314.0 86.0L379.0 86.0Z" fill-rule="nonzero"/><path stroke="#000000" stroke-width="0.0" stroke-linecap="butt" stroke-opacity="0.0" clip-path="url(#id_0)" d="M379.0 109.0L314.0 109.0L314.0 98.0L379.0 98.0Z" fill-rule="nonzero"/><path fill="#46c487" clip-path="url(#id_0)" d="M379.0 109.0L314.0 109.0L314.0 98.0L379.0 98.0Z" fill-rule="nonzero"/><path stroke="#000000" stroke-width="0.0" stroke-linecap="butt" stroke-opacity="0.0" clip-path="url(#id_0)" d="M379.0 120.0L314.0 120.0L314.0 110.0L379.0 110.0Z" fill-rule="nonzero"/><path fill="#46c487" clip-path="url(#id_0)" d="M379.0 120.0L314.0 120.0L314.0 110.0L379.0 110.0Z" fill-rule="nonzero"/><path stroke="#000000" stroke-width="0.0" stroke-linecap="butt" stroke-opacity="0.0" clip-path="url(#id_0)" d="M379.0 132.0L314.0 132.0L314.0 121.0L379.0 121.0Z" fill-rule="nonzero"/><path fill="#46c487" clip-path="url(#id_0)" d="M379.0 132.0L314.0 132.0L314.0 121.0L379.0 121.0Z" fill-rule="nonzero"/><path stroke="#000000" stroke-width="0.0" stroke-linecap="butt" stroke-opacity="0.0" clip-path="url(#id_0)" d="M379.0 144.0L314.0 144.0L314.0 133.0L379.0 133.0Z" fill-rule="nonzero"/><path fill="#46c487" clip-path="url(#id_0)" d="M379.0 144.0L314.0 144.0L314.0 133.0L379.0 133.0Z" fill-rule="nonzero"/><path stroke="#000000" stroke-width="0.0" stroke-linecap="butt" stroke-opacity="0.0" clip-path="url(#id_0)" d="M379.0 156.0L314.0 156.0L314.0 145.0L379.0 145.0Z" fill-rule="nonzero"/><path fill="#46c487" clip-path="url(#id_0)" d="M379.0 156.0L314.0 156.0L314.0 145.0L379.0 145.0Z" fill-rule="nonzero"/><path stroke="#000000" stroke-width="0.0" stroke-linecap="butt" stroke-opacity="0.0" clip-path="url(#id_0)" d="M379.0 168.0L314.0 168.0L314.0 157.0L379.0 157.0Z" fill-rule="nonzero"/><path fill="#46c487" clip-path="url(#id_0)" d="M379.0 168.0L314.0 168.0L314.0 157.0L379.0 157.0Z" fill-rule="nonzero"/><path stroke="#000000" stroke-width="0.0" stroke-linecap="butt" stroke-opacity="0.0" clip-path="url(#id_0)" d="M379.0 179.0L314.0 179.0L314.0 169.0L379.0 169.0Z" fill-rule="nonzero"/><path fill="#46c487" clip-path="url(#id_0)" d="M379.0 179.0L314.0 179.0L314.0 169.0L379.0 169.0Z" fill-rule="nonzero"/><path stroke="#000000" stroke-width="0.0" stroke-linecap="butt" stroke-opacity="0.0" clip-path="url(#id_0)" d="M379.0 191.0L314.0 191.0L314.0 180.0L379.0 180.0Z" fill-rule="nonzero"/><path fill="#46c487" clip-path="url(#id_0)" d="M379.0 191.0L314.0 191.0L314.0 180.0L379.0 180.0Z" fill-rule="nonzero"/><path stroke="#000000" stroke-width="0.0" stroke-linecap="butt" stroke-opacity="0.0" clip-path="url(#id_0)" d="M379.0 203.0L314.0 203.0L314.0 192.0L379.0 192.0Z" fill-rule="nonzero"/><path fill="#46c487" clip-path="url(#id_0)" d="M379.0 203.0L314.0 203.0L314.0 192.0L379.0 192.0Z" fill-rule="nonzero"/><path stroke="#000000" stroke-width="0.0" stroke-linecap="butt" stroke-opacity="0.0" clip-path="url(#id_0)" d="M379.0 215.0L314.0 215.0L314.0 204.0L379.0 204.0Z" fill-rule="nonzero"/><path fill="#46c487" clip-path="url(#id_0)" d="M379.0 215.0L314.0 215.0L314.0 204.0L379.0 204.0Z" fill-rule="nonzero"/><path stroke="#000000" stroke-width="0.0" stroke-linecap="butt" stroke-opacity="0.0" clip-path="url(#id_0)" d="M379.0 227.0L314.0 227.0L314.0 216.0L379.0 216.0Z" fill-rule="nonzero"/><path fill="#46c487" clip-path="url(#id_0)" d="M379.0 227.0L314.0 227.0L314.0 216.0L379.0 216.0Z" fill-rule="nonzero"/><path stroke="#000000" stroke-width="0.0" stroke-linecap="butt" stroke-opacity="0.0" clip-path="url(#id_0)" d="M379.0 238.0L314.0 238.0L314.0 228.0L379.0 228.0Z" fill-rule="nonzero"/><path fill="#46c487" clip-path="url(#id_0)" d="M379.0 238.0L314.0 238.0L314.0 228.0L379.0 228.0Z" fill-rule="nonzero"/><path stroke="#000000" stroke-width="0.0" stroke-linecap="butt" stroke-opacity="0.0" clip-path="url(#id_0)" d="M379.0 250.0L314.0 250.0L314.0 239.0L379.0 239.0Z" fill-rule="nonzero"/><path fill="#46c487" clip-path="url(#id_0)" d="M379.0 250.0L314.0 250.0L314.0 239.0L379.0 239.0Z" fill-rule="nonzero"/><path stroke="#000000" stroke-width="0.0" stroke-linecap="butt" stroke-opacity="0.0" clip-path="url(#id_0)" d="M379.0 262.0L314.0 262.0L314.0 251.0L379.0 251.0Z" fill-rule="nonzero"/><path fill="#46c487" clip-path="url(#id_0)" d="M379.0 262.0L314.0 262.0L314.0 251.0L379.0 251.0Z" fill-rule="nonzero"/><path stroke="#000000" stroke-width="0.0" stroke-linecap="butt" stroke-opacity="0.0" clip-path="url(#id_0)" d="M379.0 274.0L314.0 274.0L314.0 263.0L379.0 263.0Z" fill-rule="nonzero"/><path fill="#46c487" clip-path="url(#id_0)" d="M379.0 274.0L314.0 274.0L314.0 263.0L379.0 263.0Z" fill-rule="nonzero"/><path stroke="#000000" stroke-width="0.0" stroke-linecap="butt" stroke-opacity="0.0" clip-path="url(#id_0)" d="M379.0 286.0L314.0 286.0L314.0 275.0L379.0 275.0Z" fill-rule="nonzero"/><path fill="#46c487" clip-path="url(#id_0)" d="M379.0 286.0L314.0 286.0L314.0 275.0L379.0 275.0Z" fill-rule="nonzero"/><path stroke="#000000" stroke-width="0.0" stroke-linecap="butt" stroke-opacity="0.0" clip-path="url(#id_0)" d="M379.0 298.0L314.0 298.0L314.0 287.0L379.0 287.0Z" fill-rule="nonzero"/><path fill="#46c487" clip-path="url(#id_0)" d="M379.0 298.0L314.0 298.0L314.0 287.0L379.0 287.0Z" fill-rule="nonzero"/><path stroke="#000000" stroke-width="0.0" stroke-linecap="butt" stroke-opacity="0.0" clip-path="url(#id_0)" d="M513.0 286.0L448.0 286.0L448.0 277.0C448.0 275.89542 448.89542 275.0 450.0 275.0L511.0 275.0C512.10455 275.0 513.0 275.89542 513.0 277.0Z" fill-rule="nonzero"/><path fill="#46c487" clip-path="url(#id_0)" d="M513.0 286.0L448.0 286.0L448.0 277.0C448.0 275.89542 448.89542 275.0 450.0 275.0L511.0 275.0C512.10455 275.0 513.0 275.89542 513.0 277.0Z" fill-rule="nonzero"/><path stroke="#000000" stroke-width="0.0" stroke-linecap="butt" stroke-opacity="0.0" clip-path="url(#id_0)" d="M513.0 298.0L448.0 298.0L448.0 287.0L513.0 287.0Z" fill-rule="nonzero"/><path fill="#46c487" clip-path="url(#id_0)" d="M513.0 298.0L448.0 298.0L448.0 287.0L513.0 287.0Z" fill-rule="nonzero"/><path fill="#424242" d="M265.29688 348.325Q264.85938 348.95 264.07812 349.2625Q263.29688 349.575 262.26562 349.575Q261.23438 349.575 260.42188 349.09064Q259.60938 348.59064 259.17188 347.6844Q258.73438 346.77814 258.71875 345.59064L258.71875 344.85626Q258.71875 342.91876 259.60938 341.85626Q260.51562 340.79376 262.14062 340.79376Q263.48438 340.79376 264.29688 341.48126Q265.10938 342.16876 265.29688 343.41876L264.17188 343.41876Q263.84375 341.73126 262.15625 341.73126Q261.01562 341.73126 260.4375 342.52814Q259.85938 343.3094 259.84375 344.825L259.84375 345.5125Q259.84375 346.95 260.5 347.8094Q261.15625 348.65314 262.28125 348.65314Q262.90625 348.65314 263.375 348.5125Q263.85938 348.3719 264.17188 348.02814L264.17188 346.1219L262.20312 346.1219L262.20312 345.2L265.29688 345.2L265.29688 348.325ZM269.89062 344.075Q269.64062 344.04376 269.35938 344.04376Q268.28125 344.04376 267.90625 344.95L267.90625 349.45L266.82812 349.45L266.82812 343.10626L267.875 343.10626L267.89062 343.84064Q268.42188 342.9969 269.40625 342.9969Q269.71875 342.9969 269.89062 343.075L269.89062 344.075ZM274.73438 349.45Q274.64062 349.2625 274.57812 348.77814Q273.82812 349.575 272.78125 349.575Q271.84375 349.575 271.23438 349.04376Q270.64062 348.5125 270.64062 347.6844Q270.64062 346.7 271.39062 346.15314Q272.14062 345.60626 273.51562 345.60626L274.5625 345.60626L274.5625 345.10626Q274.5625 344.54376 274.21875 344.21564Q273.89062 343.8719 273.21875 343.8719Q272.64062 343.8719 272.25 344.16876Q271.85938 344.45 271.85938 344.8719L270.76562 344.8719Q270.76562 344.3875 271.09375 343.95Q271.4375 343.5125 272.01562 343.2625Q272.59375 342.9969 273.28125 342.9969Q274.39062 342.9969 275.0 343.54376Q275.625 344.09064 275.65625 345.04376L275.65625 347.96564Q275.65625 348.84064 275.875 349.35626L275.875 349.45L274.73438 349.45ZM272.9375 348.6219Q273.45312 348.6219 273.90625 348.35626Q274.35938 348.09064 274.5625 347.66876L274.5625 346.3719L273.71875 346.3719Q271.71875 346.3719 271.71875 347.54376Q271.71875 348.04376 272.0625 348.34064Q272.40625 348.6219 272.9375 348.6219ZM277.5625 346.23126Q277.5625 344.7625 278.25 343.8875Q278.9375 342.9969 280.0625 342.9969Q281.17188 342.9969 281.82812 343.7469L281.82812 340.45L282.90625 340.45L282.90625 349.45L281.90625 349.45L281.85938 348.7625Q281.20312 349.575 280.04688 349.575Q278.95312 349.575 278.25 348.66876Q277.5625 347.7625 277.5625 346.3094L277.5625 346.23126ZM278.64062 346.35626Q278.64062 347.4344 279.07812 348.04376Q279.53125 348.65314 280.3125 348.65314Q281.34375 348.65314 281.82812 347.71564L281.82812 344.8094Q281.34375 343.91876 280.32812 343.91876Q279.53125 343.91876 279.07812 344.52814Q278.64062 345.1375 278.64062 346.35626ZM287.45312 349.575Q286.15625 349.575 285.34375 348.73126Q284.54688 347.8719 284.54688 346.45L284.54688 346.2625Q284.54688 345.3094 284.90625 344.575Q285.26562 343.825 285.90625 343.41876Q286.5625 342.9969 287.3125 342.9969Q288.54688 342.9969 289.23438 343.8094Q289.92188 344.6219 289.92188 346.1375L289.92188 346.59064L285.625 346.59064Q285.65625 347.52814 286.17188 348.10626Q286.70312 348.6844 287.51562 348.6844Q288.07812 348.6844 288.46875 348.45Q288.875 348.21564 289.1875 347.825L289.84375 348.34064Q289.04688 349.575 287.45312 349.575ZM287.3125 343.8875Q286.65625 343.8875 286.20312 344.3719Q285.76562 344.84064 285.67188 345.7L288.84375 345.7L288.84375 345.6219Q288.79688 344.79376 288.39062 344.34064Q288.0 343.8875 287.3125 343.8875ZM294.51562 347.7625Q294.51562 347.325 294.17188 347.09064Q293.84375 346.84064 293.01562 346.66876Q292.20312 346.4969 291.71875 346.2469Q291.23438 345.9969 291.0 345.66876Q290.78125 345.325 290.78125 344.85626Q290.78125 344.075 291.4375 343.54376Q292.09375 342.9969 293.125 342.9969Q294.20312 342.9969 294.85938 343.5594Q295.53125 344.10626 295.53125 344.96564L294.45312 344.96564Q294.45312 344.52814 294.0625 344.21564Q293.6875 343.8875 293.125 343.8875Q292.53125 343.8875 292.1875 344.15314Q291.85938 344.40314 291.85938 344.8094Q291.85938 345.2 292.17188 345.40314Q292.48438 345.60626 293.29688 345.79376Q294.10938 345.96564 294.60938 346.21564Q295.10938 346.46564 295.34375 346.825Q295.59375 347.1844 295.59375 347.6844Q295.59375 348.54376 294.90625 349.0594Q294.23438 349.575 293.15625 349.575Q292.39062 349.575 291.79688 349.3094Q291.21875 349.02814 290.89062 348.54376Q290.5625 348.0594 290.5625 347.4969L291.64062 347.4969Q291.67188 348.04376 292.07812 348.3719Q292.48438 348.6844 293.15625 348.6844Q293.76562 348.6844 294.14062 348.4344Q294.51562 348.1844 294.51562 347.7625ZM299.78125 345.98126Q299.78125 344.66876 300.125 343.45Q300.48438 342.23126 301.1875 341.23126Q301.89062 340.23126 302.65625 339.825L302.875 340.54376Q302.01562 341.2 301.46875 342.54376Q300.92188 343.8875 300.875 345.5594L300.85938 346.0594Q300.85938 348.325 301.6875 349.98126Q302.1875 350.98126 302.875 351.54376L302.65625 352.2Q301.875 351.77814 301.15625 350.7469Q299.78125 348.7625 299.78125 345.98126ZM305.0 349.45L303.92188 349.45L303.92188 343.10626L305.0 343.10626L305.0 349.45ZM303.82812 341.4344Q303.82812 341.16876 303.98438 340.98126Q304.15625 340.79376 304.46875 340.79376Q304.78125 340.79376 304.9375 340.98126Q305.10938 341.16876 305.10938 341.4344Q305.10938 341.6844 304.9375 341.8719Q304.78125 342.04376 304.46875 342.04376Q304.15625 342.04376 303.98438 341.8719Q303.82812 341.6844 303.82812 341.4344ZM307.84375 343.10626L307.875 343.90314Q308.60938 342.9969 309.78125 342.9969Q311.79688 342.9969 311.8125 345.2625L311.8125 349.45L310.71875 349.45L310.71875 345.2469Q310.71875 344.575 310.40625 344.2469Q310.10938 343.91876 309.45312 343.91876Q308.92188 343.91876 308.51562 344.2Q308.125 344.48126 307.90625 344.9344L307.90625 349.45L306.82812 349.45L306.82812 343.10626L307.84375 343.10626ZM316.5625 346.23126Q316.5625 344.7625 317.25 343.8875Q317.9375 342.9969 319.0625 342.9969Q320.17188 342.9969 320.82812 343.7469L320.82812 340.45L321.90625 340.45L321.90625 349.45L320.90625 349.45L320.85938 348.7625Q320.20312 349.575 319.04688 349.575Q317.95312 349.575 317.25 348.66876Q316.5625 347.7625 316.5625 346.3094L316.5625 346.23126ZM317.64062 346.35626Q317.64062 347.4344 318.07812 348.04376Q318.53125 348.65314 319.3125 348.65314Q320.34375 348.65314 320.82812 347.71564L320.82812 344.8094Q320.34375 343.91876 319.32812 343.91876Q318.53125 343.91876 318.07812 344.52814Q317.64062 345.1375 317.64062 346.35626ZM326.45312 349.575Q325.15625 349.575 324.34375 348.73126Q323.54688 347.8719 323.54688 346.45L323.54688 346.2625Q323.54688 345.3094 323.90625 344.575Q324.26562 343.825 324.90625 343.41876Q325.5625 342.9969 326.3125 342.9969Q327.54688 342.9969 328.23438 343.8094Q328.92188 344.6219 328.92188 346.1375L328.92188 346.59064L324.625 346.59064Q324.65625 347.52814 325.17188 348.10626Q325.70312 348.6844 326.51562 348.6844Q327.07812 348.6844 327.46875 348.45Q327.875 348.21564 328.1875 347.825L328.84375 348.34064Q328.04688 349.575 326.45312 349.575ZM326.3125 343.8875Q325.65625 343.8875 325.20312 344.3719Q324.76562 344.84064 324.67188 345.7L327.84375 345.7L327.84375 345.6219Q327.79688 344.79376 327.39062 344.34064Q327.0 343.8875 326.3125 343.8875ZM332.35938 348.6844Q332.9375 348.6844 333.375 348.34064Q333.8125 347.98126 333.85938 347.45L334.89062 347.45Q334.85938 347.9969 334.5 348.4969Q334.15625 348.98126 333.57812 349.27814Q333.01562 349.575 332.35938 349.575Q331.0625 349.575 330.29688 348.71564Q329.54688 347.84064 329.54688 346.34064L329.54688 346.15314Q329.54688 345.23126 329.875 344.5125Q330.21875 343.79376 330.84375 343.40314Q331.48438 342.9969 332.35938 342.9969Q333.42188 342.9969 334.125 343.6375Q334.84375 344.2625 334.89062 345.29376L333.85938 345.29376Q333.8125 344.66876 333.39062 344.27814Q332.96875 343.8875 332.35938 343.8875Q331.53125 343.8875 331.07812 344.48126Q330.625 345.075 330.625 346.2L330.625 346.40314Q330.625 347.4969 331.07812 348.09064Q331.53125 348.6844 332.35938 348.6844ZM337.0 349.45L335.92188 349.45L335.92188 343.10626L337.0 343.10626L337.0 349.45ZM335.82812 341.4344Q335.82812 341.16876 335.98438 340.98126Q336.15625 340.79376 336.46875 340.79376Q336.78125 340.79376 336.9375 340.98126Q337.10938 341.16876 337.10938 341.4344Q337.10938 341.6844 336.9375 341.8719Q336.78125 342.04376 336.46875 342.04376Q336.15625 342.04376 335.98438 341.8719Q335.82812 341.6844 335.82812 341.4344ZM339.84375 343.10626L339.875 343.8094Q340.5625 342.9969 341.75 342.9969Q343.07812 342.9969 343.5625 344.0125Q343.875 343.5594 344.375 343.27814Q344.89062 342.9969 345.57812 342.9969Q347.67188 342.9969 347.70312 345.2L347.70312 349.45L346.625 349.45L346.625 345.2625Q346.625 344.59064 346.3125 344.2625Q346.0 343.91876 345.26562 343.91876Q344.65625 343.91876 344.25 344.27814Q343.85938 344.6375 343.79688 345.2469L343.79688 349.45L342.71875 349.45L342.71875 345.29376Q342.71875 343.91876 341.35938 343.91876Q340.29688 343.91876 339.90625 344.825L339.90625 349.45L338.8125 349.45L338.8125 343.10626L339.84375 343.10626ZM353.73438 349.45Q353.64062 349.2625 353.57812 348.77814Q352.82812 349.575 351.78125 349.575Q350.84375 349.575 350.23438 349.04376Q349.64062 348.5125 349.64062 347.6844Q349.64062 346.7 350.39062 346.15314Q351.14062 345.60626 352.51562 345.60626L353.5625 345.60626L353.5625 345.10626Q353.5625 344.54376 353.21875 344.21564Q352.89062 343.8719 352.21875 343.8719Q351.64062 343.8719 351.25 344.16876Q350.85938 344.45 350.85938 344.8719L349.76562 344.8719Q349.76562 344.3875 350.09375 343.95Q350.4375 343.5125 351.01562 343.2625Q351.59375 342.9969 352.28125 342.9969Q353.39062 342.9969 354.0 343.54376Q354.625 344.09064 354.65625 345.04376L354.65625 347.96564Q354.65625 348.84064 354.875 349.35626L354.875 349.45L353.73438 349.45ZM351.9375 348.6219Q352.45312 348.6219 352.90625 348.35626Q353.35938 348.09064 353.5625 347.66876L353.5625 346.3719L352.71875 346.3719Q350.71875 346.3719 350.71875 347.54376Q350.71875 348.04376 351.0625 348.34064Q351.40625 348.6219 351.9375 348.6219ZM358.0 349.45L356.92188 349.45L356.92188 340.45L358.0 340.45L358.0 349.45ZM363.51562 347.7625Q363.51562 347.325 363.17188 347.09064Q362.84375 346.84064 362.01562 346.66876Q361.20312 346.4969 360.71875 346.2469Q360.23438 345.9969 360.0 345.66876Q359.78125 345.325 359.78125 344.85626Q359.78125 344.075 360.4375 343.54376Q361.09375 342.9969 362.125 342.9969Q363.20312 342.9969 363.85938 343.5594Q364.53125 344.10626 364.53125 344.96564L363.45312 344.96564Q363.45312 344.52814 363.0625 344.21564Q362.6875 343.8875 362.125 343.8875Q361.53125 343.8875 361.1875 344.15314Q360.85938 344.40314 360.85938 344.8094Q360.85938 345.2 361.17188 345.40314Q361.48438 345.60626 362.29688 345.79376Q363.10938 345.96564 363.60938 346.21564Q364.10938 346.46564 364.34375 346.825Q364.59375 347.1844 364.59375 347.6844Q364.59375 348.54376 363.90625 349.0594Q363.23438 349.575 362.15625 349.575Q361.39062 349.575 360.79688 349.3094Q360.21875 349.02814 359.89062 348.54376Q359.5625 348.0594 359.5625 347.4969L360.64062 347.4969Q360.67188 348.04376 361.07812 348.3719Q361.48438 348.6844 362.15625 348.6844Q362.76562 348.6844 363.14062 348.4344Q363.51562 348.1844 363.51562 347.7625ZM368.32812 346.04376Q368.32812 347.35626 367.98438 348.5594Q367.64062 349.7469 366.92188 350.7625Q366.21875 351.77814 365.45312 352.2L365.21875 351.54376Q366.125 350.85626 366.67188 349.40314Q367.21875 347.9344 367.23438 346.16876L367.23438 345.98126Q367.23438 344.7469 366.96875 343.6844Q366.71875 342.6219 366.25 341.79376Q365.79688 340.95 365.21875 340.48126L365.45312 339.825Q366.21875 340.2469 366.92188 341.2469Q367.625 342.2469 367.96875 343.46564Q368.32812 344.66876 368.32812 346.04376Z" fill-rule="nonzero"/><path fill="#757575" d="M38.6125 299.3094Q38.6125 301.21564 37.95625 302.15314Q37.315624 303.075 35.925 303.075Q34.565624 303.075 33.909374 302.16876Q33.253124 301.2625 33.221874 299.45L33.221874 298.0125Q33.221874 296.1219 33.8625 295.21564Q34.51875 294.29376 35.909374 294.29376Q37.284374 294.29376 37.940624 295.1844Q38.596874 296.0594 38.6125 297.90314L38.6125 299.3094ZM37.51875 297.825Q37.51875 296.45 37.128124 295.825Q36.753124 295.1844 35.909374 295.1844Q35.08125 295.1844 34.690624 295.825Q34.315624 296.45 34.315624 297.7469L34.315624 299.48126Q34.315624 300.85626 34.70625 301.52814Q35.1125 302.1844 35.925 302.1844Q36.721874 302.1844 37.1125 301.5594Q37.503124 300.9344 37.51875 299.60626L37.51875 297.825Z" fill-rule="nonzero"/><path fill="#757575" d="M33.753124 239.66042L34.190624 235.41042L38.565624 235.41042L38.565624 236.41042L35.1125 236.41042L34.846874 238.73854Q35.4875 238.36354 36.284374 238.36354Q37.440624 238.36354 38.128124 239.14479Q38.815624 239.91042 38.815624 241.22292Q38.815624 242.53542 38.096874 243.30104Q37.39375 244.06667 36.1125 244.06667Q34.9875 244.06667 34.26875 243.44167Q33.55 242.80104 33.45625 241.69167L34.471874 241.69167Q34.58125 242.42604 35.003124 242.80104Q35.425 243.17604 36.1125 243.17604Q36.8625 243.17604 37.3 242.66042Q37.7375 242.14479 37.7375 241.23854Q37.7375 240.37917 37.26875 239.86354Q36.8 239.34792 36.01875 239.34792Q35.315624 239.34792 34.909374 239.64479L34.628124 239.87917L33.753124 239.66042Z" fill-rule="nonzero"/><path fill="#757575" d="M29.815624 184.93333L28.7375 184.93333L28.7375 177.71458L26.55 178.51146L26.55 177.52708L29.659374 176.35521L29.815624 176.35521L29.815624 184.93333ZM38.6125 181.29271Q38.6125 183.19896 37.95625 184.13646Q37.315624 185.05833 35.925 185.05833Q34.565624 185.05833 33.909374 184.15208Q33.253124 183.24583 33.221874 181.43333L33.221874 179.99583Q33.221874 178.10521 33.8625 177.19896Q34.51875 176.27708 35.909374 176.27708Q37.284374 176.27708 37.940624 177.16771Q38.596874 178.04271 38.6125 179.88646L38.6125 181.29271ZM37.51875 179.80833Q37.51875 178.43333 37.128124 177.80833Q36.753124 177.16771 35.909374 177.16771Q35.08125 177.16771 34.690624 177.80833Q34.315624 178.43333 34.315624 179.73021L34.315624 181.46458Q34.315624 182.83958 34.70625 183.51146Q35.1125 184.16771 35.925 184.16771Q36.721874 184.16771 37.1125 183.54271Q37.503124 182.91771 37.51875 181.58958L37.51875 179.80833Z" fill-rule="nonzero"/><path fill="#757575" d="M29.815624 125.925L28.7375 125.925L28.7375 118.70625L26.55 119.50313L26.55 118.51875L29.659374 117.34688L29.815624 117.34688L29.815624 125.925ZM33.753124 121.64375L34.190624 117.39375L38.565624 117.39375L38.565624 118.39375L35.1125 118.39375L34.846874 120.72188Q35.4875 120.34688 36.284374 120.34688Q37.440624 120.34688 38.128124 121.12813Q38.815624 121.89375 38.815624 123.20625Q38.815624 124.51875 38.096874 125.28438Q37.39375 126.05 36.1125 126.05Q34.9875 126.05 34.26875 125.425Q33.55 124.78438 33.45625 123.675L34.471874 123.675Q34.58125 124.40938 35.003124 124.78438Q35.425 125.15938 36.1125 125.15938Q36.8625 125.15938 37.3 124.64375Q37.7375 124.12813 37.7375 123.22188Q37.7375 122.3625 37.26875 121.84688Q36.8 121.33125 36.01875 121.33125Q35.315624 121.33125 34.909374 121.62813L34.628124 121.8625L33.753124 121.64375Z" fill-rule="nonzero"/><path fill="#757575" d="M31.846874 66.916664L26.253124 66.916664L26.253124 66.135414L29.20625 62.854164Q29.8625 62.104164 30.1125 61.65104Q30.3625 61.18229 30.3625 60.68229Q30.3625 60.010414 29.95625 59.58854Q29.565624 59.15104 28.878124 59.15104Q28.08125 59.15104 27.628124 59.61979Q27.175 60.072914 27.175 60.90104L26.096874 60.90104Q26.096874 59.71354 26.846874 58.99479Q27.6125 58.260414 28.878124 58.260414Q30.08125 58.260414 30.76875 58.885414Q31.45625 59.510414 31.45625 60.55729Q31.45625 61.80729 29.846874 63.55729L27.565624 66.02604L31.846874 66.02604L31.846874 66.916664ZM38.6125 63.27604Q38.6125 65.18229 37.95625 66.11979Q37.315624 67.041664 35.925 67.041664Q34.565624 67.041664 33.909374 66.135414Q33.253124 65.229164 33.221874 63.416664L33.221874 61.979164Q33.221874 60.08854 33.8625 59.18229Q34.51875 58.260414 35.909374 58.260414Q37.284374 58.260414 37.940624 59.15104Q38.596874 60.02604 38.6125 61.86979L38.6125 63.27604ZM37.51875 61.791664Q37.51875 60.416664 37.128124 59.791664Q36.753124 59.15104 35.909374 59.15104Q35.08125 59.15104 34.690624 59.791664Q34.315624 60.416664 34.315624 61.71354L34.315624 63.447914Q34.315624 64.822914 34.70625 65.49479Q35.1125 66.15104 35.925 66.15104Q36.721874 66.15104 37.1125 65.52604Q37.503124 64.90104 37.51875 63.572914L37.51875 61.791664Z" fill-rule="nonzero"/><path fill="#757575" d="M39.6125 312.8094Q39.6125 314.71564 38.95625 315.65314Q38.315624 316.575 36.925 316.575Q35.565624 316.575 34.909374 315.66876Q34.253124 314.7625 34.221874 312.95L34.221874 311.5125Q34.221874 309.6219 34.8625 308.71564Q35.51875 307.79376 36.909374 307.79376Q38.284374 307.79376 38.940624 308.6844Q39.596874 309.5594 39.6125 311.40314L39.6125 312.8094ZM38.51875 311.325Q38.51875 309.95 38.128124 309.325Q37.753124 308.6844 36.909374 308.6844Q36.08125 308.6844 35.690624 309.325Q35.315624 309.95 35.315624 311.2469L35.315624 312.98126Q35.315624 314.35626 35.70625 315.02814Q36.1125 315.6844 36.925 315.6844Q37.721874 315.6844 38.1125 315.0594Q38.503124 314.4344 38.51875 313.10626L38.51875 311.325ZM41.39375 315.8875Q41.39375 315.60626 41.55 315.41876Q41.721874 315.23126 42.05 315.23126Q42.39375 315.23126 42.565624 315.41876Q42.7375 315.60626 42.7375 315.8875Q42.7375 316.15314 42.565624 316.34064Q42.39375 316.5125 42.05 316.5125Q41.721874 316.5125 41.55 316.34064Q41.39375 316.15314 41.39375 315.8875ZM48.51875 307.91876L48.51875 308.825L48.315624 308.825Q47.05 308.85626 46.3 309.59064Q45.55 310.3094 45.425 311.6219Q46.1125 310.85626 47.26875 310.85626Q48.378124 310.85626 49.05 311.6375Q49.721874 312.41876 49.721874 313.66876Q49.721874 314.98126 49.003124 315.77814Q48.284374 316.575 47.065624 316.575Q45.846874 316.575 45.08125 315.6375Q44.33125 314.6844 44.33125 313.2L44.33125 312.79376Q44.33125 310.4344 45.33125 309.1844Q46.33125 307.9344 48.315624 307.91876L48.51875 307.91876ZM47.096874 311.7625Q46.534374 311.7625 46.065624 312.09064Q45.596874 312.41876 45.409374 312.9344L45.409374 313.325Q45.409374 314.3875 45.878124 315.02814Q46.3625 315.66876 47.065624 315.66876Q47.8 315.66876 48.221874 315.1375Q48.64375 314.59064 48.64375 313.71564Q48.64375 312.84064 48.221874 312.3094Q47.8 311.7625 47.096874 311.7625ZM51.753124 312.16876L52.190624 307.91876L56.565624 307.91876L56.565624 308.91876L53.1125 308.91876L52.846874 311.2469Q53.4875 310.8719 54.284374 310.8719Q55.440624 310.8719 56.128124 311.65314Q56.815624 312.41876 56.815624 313.73126Q56.815624 315.04376 56.096874 315.8094Q55.39375 316.575 54.1125 316.575Q52.9875 316.575 52.26875 315.95Q51.55 315.3094 51.45625 314.2L52.471874 314.2Q52.58125 314.9344 53.003124 315.3094Q53.425 315.6844 54.1125 315.6844Q54.8625 315.6844 55.3 315.16876Q55.7375 314.65314 55.7375 313.7469Q55.7375 312.8875 55.26875 312.3719Q54.8 311.85626 54.01875 311.85626Q53.315624 311.85626 52.909374 312.15314L52.628124 312.3875L51.753124 312.16876Z" fill-rule="nonzero"/><path fill="#757575" d="M106.6 312.8094Q106.6 314.71564 105.94375 315.65314Q105.30312 316.575 103.9125 316.575Q102.55312 316.575 101.89687 315.66876Q101.24062 314.7625 101.20937 312.95L101.20937 311.5125Q101.20937 309.6219 101.85 308.71564Q102.50625 307.79376 103.89687 307.79376Q105.27187 307.79376 105.92812 308.6844Q106.58437 309.5594 106.6 311.40314L106.6 312.8094ZM105.50625 311.325Q105.50625 309.95 105.11562 309.325Q104.74062 308.6844 103.89687 308.6844Q103.06875 308.6844 102.67812 309.325Q102.30312 309.95 102.30312 311.2469L102.30312 312.98126Q102.30312 314.35626 102.69375 315.02814Q103.1 315.6844 103.9125 315.6844Q104.70937 315.6844 105.1 315.0594Q105.49062 314.4344 105.50625 313.10626L105.50625 311.325ZM108.38125 315.8875Q108.38125 315.60626 108.5375 315.41876Q108.70937 315.23126 109.0375 315.23126Q109.38125 315.23126 109.55312 315.41876Q109.725 315.60626 109.725 315.8875Q109.725 316.15314 109.55312 316.34064Q109.38125 316.5125 109.0375 316.5125Q108.70937 316.5125 108.5375 316.34064Q108.38125 316.15314 108.38125 315.8875ZM116.75625 308.52814L113.225 316.45L112.08437 316.45L115.6 308.8094L110.99062 308.8094L110.99062 307.91876L116.75625 307.91876L116.75625 308.52814ZM123.6 312.8094Q123.6 314.71564 122.94375 315.65314Q122.30312 316.575 120.9125 316.575Q119.55312 316.575 118.89687 315.66876Q118.24062 314.7625 118.20937 312.95L118.20937 311.5125Q118.20937 309.6219 118.85 308.71564Q119.50625 307.79376 120.89687 307.79376Q122.27187 307.79376 122.92812 308.6844Q123.58437 309.5594 123.6 311.40314L123.6 312.8094ZM122.50625 311.325Q122.50625 309.95 122.11562 309.325Q121.74062 308.6844 120.89687 308.6844Q120.06875 308.6844 119.67812 309.325Q119.30312 309.95 119.30312 311.2469L119.30312 312.98126Q119.30312 314.35626 119.69375 315.02814Q120.1 315.6844 120.9125 315.6844Q121.70937 315.6844 122.1 315.0594Q122.49062 314.4344 122.50625 313.10626L122.50625 311.325Z" fill-rule="nonzero"/><path fill="#757575" d="M173.5875 312.8094Q173.5875 314.71564 172.93124 315.65314Q172.29062 316.575 170.9 316.575Q169.54062 316.575 168.88437 315.66876Q168.22812 314.7625 168.19687 312.95L168.19687 311.5125Q168.19687 309.6219 168.8375 308.71564Q169.49374 307.79376 170.88437 307.79376Q172.25937 307.79376 172.91562 308.6844Q173.57187 309.5594 173.5875 311.40314L173.5875 312.8094ZM172.49374 311.325Q172.49374 309.95 172.10312 309.325Q171.72812 308.6844 170.88437 308.6844Q170.05624 308.6844 169.66562 309.325Q169.29062 309.95 169.29062 311.2469L169.29062 312.98126Q169.29062 314.35626 169.68124 315.02814Q170.0875 315.6844 170.9 315.6844Q171.69687 315.6844 172.0875 315.0594Q172.47812 314.4344 172.49374 313.10626L172.49374 311.325ZM175.36874 315.8875Q175.36874 315.60626 175.525 315.41876Q175.69687 315.23126 176.025 315.23126Q176.36874 315.23126 176.54062 315.41876Q176.7125 315.60626 176.7125 315.8875Q176.7125 316.15314 176.54062 316.34064Q176.36874 316.5125 176.025 316.5125Q175.69687 316.5125 175.525 316.34064Q175.36874 316.15314 175.36874 315.8875ZM183.74374 308.52814L180.2125 316.45L179.07187 316.45L182.5875 308.8094L177.97812 308.8094L177.97812 307.91876L183.74374 307.91876L183.74374 308.52814ZM185.72812 312.16876L186.16562 307.91876L190.54062 307.91876L190.54062 308.91876L187.0875 308.91876L186.82187 311.2469Q187.4625 310.8719 188.25937 310.8719Q189.41562 310.8719 190.10312 311.65314Q190.79062 312.41876 190.79062 313.73126Q190.79062 315.04376 190.07187 315.8094Q189.36874 316.575 188.0875 316.575Q186.9625 316.575 186.24374 315.95Q185.525 315.3094 185.43124 314.2L186.44687 314.2Q186.55624 314.9344 186.97812 315.3094Q187.4 315.6844 188.0875 315.6844Q188.8375 315.6844 189.275 315.16876Q189.7125 314.65314 189.7125 313.7469Q189.7125 312.8875 189.24374 312.3719Q188.775 311.85626 187.99374 311.85626Q187.29062 311.85626 186.88437 312.15314L186.60312 312.3875L185.72812 312.16876Z" fill-rule="nonzero"/><path fill="#757575" d="M240.575 312.8094Q240.575 314.71564 239.91875 315.65314Q239.27812 316.575 237.8875 316.575Q236.52812 316.575 235.87187 315.66876Q235.21562 314.7625 235.18437 312.95L235.18437 311.5125Q235.18437 309.6219 235.825 308.71564Q236.48125 307.79376 237.87187 307.79376Q239.24687 307.79376 239.90312 308.6844Q240.55937 309.5594 240.575 311.40314L240.575 312.8094ZM239.48125 311.325Q239.48125 309.95 239.09062 309.325Q238.71562 308.6844 237.87187 308.6844Q237.04375 308.6844 236.65312 309.325Q236.27812 309.95 236.27812 311.2469L236.27812 312.98126Q236.27812 314.35626 236.66875 315.02814Q237.075 315.6844 237.8875 315.6844Q238.68437 315.6844 239.075 315.0594Q239.46562 314.4344 239.48125 313.10626L239.48125 311.325ZM242.35625 315.8875Q242.35625 315.60626 242.5125 315.41876Q242.68437 315.23126 243.0125 315.23126Q243.35625 315.23126 243.52812 315.41876Q243.7 315.60626 243.7 315.8875Q243.7 316.15314 243.52812 316.34064Q243.35625 316.5125 243.0125 316.5125Q242.68437 316.5125 242.5125 316.34064Q242.35625 316.15314 242.35625 315.8875ZM250.40312 310.1375Q250.40312 310.77814 250.05937 311.27814Q249.71562 311.77814 249.15312 312.0594Q249.80937 312.34064 250.2 312.90314Q250.59062 313.45 250.59062 314.15314Q250.59062 315.2469 249.84062 315.91876Q249.10625 316.575 247.8875 316.575Q246.65312 316.575 245.90312 315.91876Q245.16875 315.2469 245.16875 314.15314Q245.16875 313.45 245.54375 312.90314Q245.91875 312.34064 246.59062 312.0594Q246.02812 311.77814 245.7 311.27814Q245.37187 310.77814 245.37187 310.1375Q245.37187 309.0594 246.05937 308.4344Q246.74687 307.79376 247.8875 307.79376Q249.0125 307.79376 249.7 308.4344Q250.40312 309.0594 250.40312 310.1375ZM249.5125 314.1219Q249.5125 313.40314 249.05937 312.96564Q248.60625 312.5125 247.87187 312.5125Q247.1375 312.5125 246.68437 312.96564Q246.24687 313.40314 246.24687 314.1375Q246.24687 314.85626 246.68437 315.27814Q247.12187 315.6844 247.8875 315.6844Q248.6375 315.6844 249.075 315.2625Q249.5125 314.84064 249.5125 314.1219ZM247.8875 308.6844Q247.24687 308.6844 246.84062 309.09064Q246.45 309.48126 246.45 310.16876Q246.45 310.8094 246.84062 311.21564Q247.23125 311.6219 247.87187 311.6219Q248.52812 311.6219 248.91875 311.21564Q249.30937 310.8094 249.30937 310.16876Q249.30937 309.5125 248.90312 309.10626Q248.49687 308.6844 247.8875 308.6844ZM257.575 312.8094Q257.575 314.71564 256.91876 315.65314Q256.27814 316.575 254.8875 316.575Q253.52812 316.575 252.87187 315.66876Q252.21562 314.7625 252.18437 312.95L252.18437 311.5125Q252.18437 309.6219 252.825 308.71564Q253.48125 307.79376 254.87187 307.79376Q256.2469 307.79376 256.90314 308.6844Q257.5594 309.5594 257.575 311.40314L257.575 312.8094ZM256.48126 311.325Q256.48126 309.95 256.09064 309.325Q255.71562 308.6844 254.87187 308.6844Q254.04375 308.6844 253.65312 309.325Q253.27812 309.95 253.27812 311.2469L253.27812 312.98126Q253.27812 314.35626 253.66875 315.02814Q254.075 315.6844 254.8875 315.6844Q255.68437 315.6844 256.075 315.0594Q256.46564 314.4344 256.48126 313.10626L256.48126 311.325Z" fill-rule="nonzero"/><path fill="#757575" d="M307.5625 312.8094Q307.5625 314.71564 306.90625 315.65314Q306.26562 316.575 304.875 316.575Q303.51562 316.575 302.85938 315.66876Q302.20312 314.7625 302.17188 312.95L302.17188 311.5125Q302.17188 309.6219 302.8125 308.71564Q303.46875 307.79376 304.85938 307.79376Q306.23438 307.79376 306.89062 308.6844Q307.54688 309.5594 307.5625 311.40314L307.5625 312.8094ZM306.46875 311.325Q306.46875 309.95 306.07812 309.325Q305.70312 308.6844 304.85938 308.6844Q304.03125 308.6844 303.64062 309.325Q303.26562 309.95 303.26562 311.2469L303.26562 312.98126Q303.26562 314.35626 303.65625 315.02814Q304.0625 315.6844 304.875 315.6844Q305.67188 315.6844 306.0625 315.0594Q306.45312 314.4344 306.46875 313.10626L306.46875 311.325ZM309.34375 315.8875Q309.34375 315.60626 309.5 315.41876Q309.67188 315.23126 310.0 315.23126Q310.34375 315.23126 310.51562 315.41876Q310.6875 315.60626 310.6875 315.8875Q310.6875 316.15314 310.51562 316.34064Q310.34375 316.5125 310.0 316.5125Q309.67188 316.5125 309.5 316.34064Q309.34375 316.15314 309.34375 315.8875ZM317.39062 310.1375Q317.39062 310.77814 317.04688 311.27814Q316.70312 311.77814 316.14062 312.0594Q316.79688 312.34064 317.1875 312.90314Q317.57812 313.45 317.57812 314.15314Q317.57812 315.2469 316.82812 315.91876Q316.09375 316.575 314.875 316.575Q313.64062 316.575 312.89062 315.91876Q312.15625 315.2469 312.15625 314.15314Q312.15625 313.45 312.53125 312.90314Q312.90625 312.34064 313.57812 312.0594Q313.01562 311.77814 312.6875 311.27814Q312.35938 310.77814 312.35938 310.1375Q312.35938 309.0594 313.04688 308.4344Q313.73438 307.79376 314.875 307.79376Q316.0 307.79376 316.6875 308.4344Q317.39062 309.0594 317.39062 310.1375ZM316.5 314.1219Q316.5 313.40314 316.04688 312.96564Q315.59375 312.5125 314.85938 312.5125Q314.125 312.5125 313.67188 312.96564Q313.23438 313.40314 313.23438 314.1375Q313.23438 314.85626 313.67188 315.27814Q314.10938 315.6844 314.875 315.6844Q315.625 315.6844 316.0625 315.2625Q316.5 314.84064 316.5 314.1219ZM314.875 308.6844Q314.23438 308.6844 313.82812 309.09064Q313.4375 309.48126 313.4375 310.16876Q313.4375 310.8094 313.82812 311.21564Q314.21875 311.6219 314.85938 311.6219Q315.51562 311.6219 315.90625 311.21564Q316.29688 310.8094 316.29688 310.16876Q316.29688 309.5125 315.89062 309.10626Q315.48438 308.6844 314.875 308.6844ZM319.70312 312.16876L320.14062 307.91876L324.51562 307.91876L324.51562 308.91876L321.0625 308.91876L320.79688 311.2469Q321.4375 310.8719 322.23438 310.8719Q323.39062 310.8719 324.07812 311.65314Q324.76562 312.41876 324.76562 313.73126Q324.76562 315.04376 324.04688 315.8094Q323.34375 316.575 322.0625 316.575Q320.9375 316.575 320.21875 315.95Q319.5 315.3094 319.40625 314.2L320.42188 314.2Q320.53125 314.9344 320.95312 315.3094Q321.375 315.6844 322.0625 315.6844Q322.8125 315.6844 323.25 315.16876Q323.6875 314.65314 323.6875 313.7469Q323.6875 312.8875 323.21875 312.3719Q322.75 311.85626 321.96875 311.85626Q321.26562 311.85626 320.85938 312.15314L320.57812 312.3875L319.70312 312.16876Z" fill-rule="nonzero"/><path fill="#757575" d="M374.55 312.8094Q374.55 314.71564 373.89374 315.65314Q373.2531 316.575 371.8625 316.575Q370.5031 316.575 369.84686 315.66876Q369.1906 314.7625 369.15936 312.95L369.15936 311.5125Q369.15936 309.6219 369.8 308.71564Q370.45624 307.79376 371.84686 307.79376Q373.22186 307.79376 373.8781 308.6844Q374.53436 309.5594 374.55 311.40314L374.55 312.8094ZM373.45624 311.325Q373.45624 309.95 373.0656 309.325Q372.6906 308.6844 371.84686 308.6844Q371.01874 308.6844 370.6281 309.325Q370.2531 309.95 370.2531 311.2469L370.2531 312.98126Q370.2531 314.35626 370.64374 315.02814Q371.05 315.6844 371.8625 315.6844Q372.65936 315.6844 373.05 315.0594Q373.4406 314.4344 373.45624 313.10626L373.45624 311.325ZM376.33124 315.8875Q376.33124 315.60626 376.4875 315.41876Q376.65936 315.23126 376.9875 315.23126Q377.33124 315.23126 377.5031 315.41876Q377.675 315.60626 377.675 315.8875Q377.675 316.15314 377.5031 316.34064Q377.33124 316.5125 376.9875 316.5125Q376.65936 316.5125 376.4875 316.34064Q376.33124 316.15314 376.33124 315.8875ZM383.34686 312.7Q383.01874 313.10626 382.53436 313.35626Q382.0656 313.59064 381.5031 313.59064Q380.76874 313.59064 380.22186 313.23126Q379.675 312.8719 379.3781 312.21564Q379.08124 311.54376 379.08124 310.7469Q379.08124 309.90314 379.39374 309.21564Q379.72186 308.52814 380.3156 308.16876Q380.925 307.79376 381.72186 307.79376Q382.9875 307.79376 383.70624 308.7469Q384.4406 309.7 384.4406 311.325L384.4406 311.6375Q384.4406 314.1375 383.45624 315.27814Q382.47186 316.41876 380.4875 316.45L380.26874 316.45L380.26874 315.54376L380.5031 315.54376Q381.84686 315.5125 382.5656 314.84064Q383.28436 314.16876 383.34686 312.7ZM381.675 312.7Q382.22186 312.7 382.675 312.3719Q383.14374 312.02814 383.3625 311.54376L383.3625 311.10626Q383.3625 310.04376 382.89374 309.3719Q382.425 308.7 381.72186 308.7Q381.0031 308.7 380.5656 309.2469Q380.14374 309.79376 380.14374 310.7Q380.14374 311.575 380.55 312.1375Q380.97186 312.7 381.675 312.7ZM391.55 312.8094Q391.55 314.71564 390.89374 315.65314Q390.2531 316.575 388.8625 316.575Q387.5031 316.575 386.84686 315.66876Q386.1906 314.7625 386.15936 312.95L386.15936 311.5125Q386.15936 309.6219 386.8 308.71564Q387.45624 307.79376 388.84686 307.79376Q390.22186 307.79376 390.8781 308.6844Q391.53436 309.5594 391.55 311.40314L391.55 312.8094ZM390.45624 311.325Q390.45624 309.95 390.0656 309.325Q389.6906 308.6844 388.84686 308.6844Q388.01874 308.6844 387.6281 309.325Q387.2531 309.95 387.2531 311.2469L387.2531 312.98126Q387.2531 314.35626 387.64374 315.02814Q388.05 315.6844 388.8625 315.6844Q389.65936 315.6844 390.05 315.0594Q390.4406 314.4344 390.45624 313.10626L390.45624 311.325Z" fill-rule="nonzero"/><path fill="#757575" d="M441.5375 312.8094Q441.5375 314.71564 440.88126 315.65314Q440.24063 316.575 438.85 316.575Q437.49063 316.575 436.83438 315.66876Q436.17813 314.7625 436.14688 312.95L436.14688 311.5125Q436.14688 309.6219 436.7875 308.71564Q437.44376 307.79376 438.83438 307.79376Q440.20938 307.79376 440.86563 308.6844Q441.52188 309.5594 441.5375 311.40314L441.5375 312.8094ZM440.44376 311.325Q440.44376 309.95 440.05313 309.325Q439.67813 308.6844 438.83438 308.6844Q438.00626 308.6844 437.61563 309.325Q437.24063 309.95 437.24063 311.2469L437.24063 312.98126Q437.24063 314.35626 437.63126 315.02814Q438.0375 315.6844 438.85 315.6844Q439.64688 315.6844 440.0375 315.0594Q440.42813 314.4344 440.44376 313.10626L440.44376 311.325ZM443.31876 315.8875Q443.31876 315.60626 443.475 315.41876Q443.64688 315.23126 443.975 315.23126Q444.31876 315.23126 444.49063 315.41876Q444.6625 315.60626 444.6625 315.8875Q444.6625 316.15314 444.49063 316.34064Q444.31876 316.5125 443.975 316.5125Q443.64688 316.5125 443.475 316.34064Q443.31876 316.15314 443.31876 315.8875ZM450.33438 312.7Q450.00626 313.10626 449.52188 313.35626Q449.05313 313.59064 448.49063 313.59064Q447.75626 313.59064 447.20938 313.23126Q446.6625 312.8719 446.36563 312.21564Q446.06876 311.54376 446.06876 310.7469Q446.06876 309.90314 446.38126 309.21564Q446.70938 308.52814 447.30313 308.16876Q447.9125 307.79376 448.70938 307.79376Q449.975 307.79376 450.69376 308.7469Q451.42813 309.7 451.42813 311.325L451.42813 311.6375Q451.42813 314.1375 450.44376 315.27814Q449.45938 316.41876 447.475 316.45L447.25626 316.45L447.25626 315.54376L447.49063 315.54376Q448.83438 315.5125 449.55313 314.84064Q450.27188 314.16876 450.33438 312.7ZM448.6625 312.7Q449.20938 312.7 449.6625 312.3719Q450.13126 312.02814 450.35 311.54376L450.35 311.10626Q450.35 310.04376 449.88126 309.3719Q449.4125 308.7 448.70938 308.7Q447.99063 308.7 447.55313 309.2469Q447.13126 309.79376 447.13126 310.7Q447.13126 311.575 447.5375 312.1375Q447.95938 312.7 448.6625 312.7ZM453.67813 312.16876L454.11563 307.91876L458.49063 307.91876L458.49063 308.91876L455.0375 308.91876L454.77188 311.2469Q455.4125 310.8719 456.20938 310.8719Q457.36563 310.8719 458.05313 311.65314Q458.74063 312.41876 458.74063 313.73126Q458.74063 315.04376 458.02188 315.8094Q457.31876 316.575 456.0375 316.575Q454.9125 316.575 454.19376 315.95Q453.475 315.3094 453.38126 314.2L454.39688 314.2Q454.50626 314.9344 454.92813 315.3094Q455.35 315.6844 456.0375 315.6844Q456.7875 315.6844 457.225 315.16876Q457.6625 314.65314 457.6625 313.7469Q457.6625 312.8875 457.19376 312.3719Q456.725 311.85626 455.94376 311.85626Q455.24063 311.85626 454.83438 312.15314L454.55313 312.3875L453.67813 312.16876Z" fill-rule="nonzero"/><path fill="#757575" d="M506.72812 316.45L505.65 316.45L505.65 309.23126L503.4625 310.02814L503.4625 309.04376L506.57187 307.8719L506.72812 307.8719L506.72812 316.45ZM510.30624 315.8875Q510.30624 315.60626 510.4625 315.41876Q510.63437 315.23126 510.9625 315.23126Q511.30624 315.23126 511.47812 315.41876Q511.65 315.60626 511.65 315.8875Q511.65 316.15314 511.47812 316.34064Q511.30624 316.5125 510.9625 316.5125Q510.63437 316.5125 510.4625 316.34064Q510.30624 316.15314 510.30624 315.8875ZM518.525 312.8094Q518.525 314.71564 517.8688 315.65314Q517.22815 316.575 515.8375 316.575Q514.47815 316.575 513.8219 315.66876Q513.16565 314.7625 513.1344 312.95L513.1344 311.5125Q513.1344 309.6219 513.775 308.71564Q514.4313 307.79376 515.8219 307.79376Q517.1969 307.79376 517.85315 308.6844Q518.5094 309.5594 518.525 311.40314L518.525 312.8094ZM517.4313 311.325Q517.4313 309.95 517.04065 309.325Q516.66565 308.6844 515.8219 308.6844Q514.9938 308.6844 514.60315 309.325Q514.22815 309.95 514.22815 311.2469L514.22815 312.98126Q514.22815 314.35626 514.6188 315.02814Q515.025 315.6844 515.8375 315.6844Q516.6344 315.6844 517.025 315.0594Q517.41565 314.4344 517.4313 313.10626L517.4313 311.325ZM525.525 312.8094Q525.525 314.71564 524.8688 315.65314Q524.22815 316.575 522.8375 316.575Q521.47815 316.575 520.8219 315.66876Q520.16565 314.7625 520.1344 312.95L520.1344 311.5125Q520.1344 309.6219 520.775 308.71564Q521.4313 307.79376 522.8219 307.79376Q524.1969 307.79376 524.85315 308.6844Q525.5094 309.5594 525.525 311.40314L525.525 312.8094ZM524.4313 311.325Q524.4313 309.95 524.04065 309.325Q523.66565 308.6844 522.8219 308.6844Q521.9938 308.6844 521.60315 309.325Q521.22815 309.95 521.22815 311.2469L521.22815 312.98126Q521.22815 314.35626 521.6188 315.02814Q522.025 315.6844 522.8375 315.6844Q523.6344 315.6844 524.025 315.0594Q524.41565 314.4344 524.4313 313.10626L524.4313 311.325Z" fill-rule="nonzero"/><path fill="#757575" d="M573.71564 316.45L572.6375 316.45L572.6375 309.23126L570.45 310.02814L570.45 309.04376L573.5594 307.8719L573.71564 307.8719L573.71564 316.45ZM577.29376 315.8875Q577.29376 315.60626 577.45 315.41876Q577.6219 315.23126 577.95 315.23126Q578.29376 315.23126 578.46564 315.41876Q578.6375 315.60626 578.6375 315.8875Q578.6375 316.15314 578.46564 316.34064Q578.29376 316.5125 577.95 316.5125Q577.6219 316.5125 577.45 316.34064Q577.29376 316.15314 577.29376 315.8875ZM585.5125 312.8094Q585.5125 314.71564 584.85626 315.65314Q584.21564 316.575 582.825 316.575Q581.46564 316.575 580.8094 315.66876Q580.15314 314.7625 580.1219 312.95L580.1219 311.5125Q580.1219 309.6219 580.7625 308.71564Q581.41876 307.79376 582.8094 307.79376Q584.1844 307.79376 584.84064 308.6844Q585.4969 309.5594 585.5125 311.40314L585.5125 312.8094ZM584.41876 311.325Q584.41876 309.95 584.02814 309.325Q583.65314 308.6844 582.8094 308.6844Q581.98126 308.6844 581.59064 309.325Q581.21564 309.95 581.21564 311.2469L581.21564 312.98126Q581.21564 314.35626 581.60626 315.02814Q582.0125 315.6844 582.825 315.6844Q583.6219 315.6844 584.0125 315.0594Q584.40314 314.4344 584.41876 313.10626L584.41876 311.325ZM587.65314 312.16876L588.09064 307.91876L592.46564 307.91876L592.46564 308.91876L589.0125 308.91876L588.7469 311.2469Q589.3875 310.8719 590.1844 310.8719Q591.34064 310.8719 592.02814 311.65314Q592.71564 312.41876 592.71564 313.73126Q592.71564 315.04376 591.9969 315.8094Q591.29376 316.575 590.0125 316.575Q588.8875 316.575 588.16876 315.95Q587.45 315.3094 587.35626 314.2L588.3719 314.2Q588.48126 314.9344 588.90314 315.3094Q589.325 315.6844 590.0125 315.6844Q590.7625 315.6844 591.2 315.16876Q591.6375 314.65314 591.6375 313.7469Q591.6375 312.8875 591.16876 312.3719Q590.7 311.85626 589.91876 311.85626Q589.21564 311.85626 588.8094 312.15314L588.52814 312.3875L587.65314 312.16876Z" fill-rule="nonzero"/><path fill="#757575" d="M23.26875 33.065624L23.534374 34.940624L23.940624 33.253124L26.753124 23.33125L28.33125 23.33125L31.08125 33.253124L31.471874 34.971874L31.76875 33.05L33.9875 23.33125L35.8625 23.33125L32.425 37.55L30.70625 37.55L27.784374 27.190624L27.55 26.096874L27.33125 27.190624L24.3 37.55L22.58125 37.55L19.14375 23.33125L21.01875 23.33125L23.26875 33.065624ZM39.878124 37.55L38.08125 37.55L38.08125 26.9875L39.878124 26.9875L39.878124 37.55ZM37.925 24.175Q37.925 23.7375 38.190624 23.440624Q38.471874 23.128124 38.9875 23.128124Q39.51875 23.128124 39.784374 23.440624Q40.065624 23.7375 40.065624 24.175Q40.065624 24.6125 39.784374 24.909374Q39.51875 25.20625 38.9875 25.20625Q38.471874 25.20625 38.190624 24.909374Q37.925 24.6125 37.925 24.175ZM44.6125 36.08125L50.8 36.08125L50.8 37.55L42.409374 37.55L42.409374 36.221874L48.2375 28.471874L42.503124 28.471874L42.503124 26.9875L50.503124 26.9875L50.503124 28.26875L44.6125 36.08125ZM59.440624 37.55Q59.284374 37.2375 59.190624 36.440624Q57.925 37.753124 56.175 37.753124Q54.6125 37.753124 53.6125 36.8625Q52.6125 35.971874 52.6125 34.6125Q52.6125 32.971874 53.8625 32.065624Q55.128124 31.14375 57.39375 31.14375L59.159374 31.14375L59.159374 30.315624Q59.159374 29.3625 58.58125 28.8Q58.01875 28.2375 56.925 28.2375Q55.95625 28.2375 55.3 28.7375Q54.64375 29.221874 54.64375 29.909374L52.83125 29.909374Q52.83125 29.128124 53.39375 28.39375Q53.95625 27.64375 54.909374 27.221874Q55.878124 26.784374 57.034374 26.784374Q58.8625 26.784374 59.89375 27.70625Q60.925 28.6125 60.971874 30.221874L60.971874 35.08125Q60.971874 36.534374 61.33125 37.39375L61.33125 37.55L59.440624 37.55ZM56.440624 36.175Q57.3 36.175 58.05 35.7375Q58.815624 35.3 59.159374 34.596874L59.159374 32.425L57.7375 32.425Q54.425 32.425 54.425 34.3625Q54.425 35.221874 54.9875 35.70625Q55.55 36.175 56.440624 36.175ZM69.01875 28.596874Q68.6125 28.534374 68.14375 28.534374Q66.3625 28.534374 65.72188 30.05L65.72188 37.55L63.925 37.55L63.925 26.9875L65.675 26.9875L65.70625 28.20625Q66.59688 26.784374 68.22188 26.784374Q68.75313 26.784374 69.01875 26.925L69.01875 28.596874ZM70.47188 32.175Q70.47188 29.753124 71.62813 28.26875Q72.78438 26.784374 74.64375 26.784374Q76.50313 26.784374 77.58125 28.05L77.58125 22.55L79.39375 22.55L79.39375 37.55L77.7375 37.55L77.64375 36.409374Q76.56563 37.753124 74.62813 37.753124Q72.8 37.753124 71.62813 36.253124Q70.47188 34.7375 70.47188 32.315624L70.47188 32.175ZM72.28438 32.378124Q72.28438 34.175 73.01875 35.190624Q73.76875 36.20625 75.08125 36.20625Q76.8 36.20625 77.58125 34.675L77.58125 29.815624Q76.78438 28.315624 75.09688 28.315624Q73.76875 28.315624 73.01875 29.346874Q72.28438 30.378124 72.28438 32.378124ZM89.08125 31.9875L89.08125 37.55L87.20625 37.55L87.20625 23.33125L92.44063 23.33125Q94.78438 23.33125 96.09688 24.51875Q97.425 25.70625 97.425 27.675Q97.425 29.753124 96.12813 30.878124Q94.83125 31.9875 92.425 31.9875L89.08125 31.9875ZM89.08125 30.45625L92.44063 30.45625Q93.95625 30.45625 94.75313 29.753124Q95.55 29.034374 95.55 27.690624Q95.55 26.425 94.75313 25.675Q93.95625 24.909374 92.55 24.878124L89.08125 24.878124L89.08125 30.45625ZM104.3 37.753124Q102.15938 37.753124 100.8 36.346874Q99.45625 34.925 99.45625 32.565624L99.45625 32.221874Q99.45625 30.659374 100.05 29.425Q100.65938 28.190624 101.7375 27.4875Q102.81563 26.784374 104.08125 26.784374Q106.14375 26.784374 107.28438 28.14375Q108.425 29.503124 108.425 32.034374L108.425 32.784374L101.26875 32.784374Q101.3 34.346874 102.175 35.315624Q103.05 36.26875 104.39375 36.26875Q105.3625 36.26875 106.01875 35.878124Q106.69063 35.4875 107.19063 34.846874L108.28438 35.70625Q106.95625 37.753124 104.3 37.753124ZM104.08125 28.26875Q102.9875 28.26875 102.2375 29.065624Q101.50313 29.8625 101.33125 31.3L106.6125 31.3L106.6125 31.159374Q106.53438 29.784374 105.8625 29.034374Q105.20625 28.26875 104.08125 28.26875ZM112.62813 26.9875L112.69063 28.315624Q113.89375 26.784374 115.84688 26.784374Q119.20625 26.784374 119.22188 30.565624L119.22188 37.55L117.425 37.55L117.425 30.55Q117.40938 29.409374 116.89375 28.8625Q116.39375 28.315624 115.3 28.315624Q114.425 28.315624 113.75313 28.784374Q113.09688 29.253124 112.72188 30.01875L112.72188 37.55L110.925 37.55L110.925 26.9875L112.62813 26.9875ZM121.4875 32.175Q121.4875 29.70625 122.62813 28.253124Q123.76875 26.784374 125.65938 26.784374Q127.59688 26.784374 128.675 28.159374L128.76875 26.9875L130.40938 26.9875L130.40938 37.3Q130.40938 39.346874 129.19063 40.51875Q127.9875 41.70625 125.925 41.70625Q124.78438 41.70625 123.69063 41.221874Q122.59688 40.7375 122.01875 39.878124L122.95625 38.8Q124.12813 40.2375 125.8 40.2375Q127.12813 40.2375 127.8625 39.4875Q128.59688 38.753124 128.59688 37.409374L128.59688 36.4875Q127.51875 37.753124 125.64375 37.753124Q123.78438 37.753124 122.62813 36.253124Q121.4875 34.753124 121.4875 32.175ZM123.3 32.378124Q123.3 34.175 124.03438 35.190624Q124.76875 36.20625 126.08125 36.20625Q127.8 36.20625 128.59688 34.659374L128.59688 29.83125Q127.76875 28.315624 126.1125 28.315624Q124.78438 28.315624 124.03438 29.346874Q123.3 30.378124 123.3 32.378124ZM139.44063 36.503124Q138.39375 37.753124 136.34688 37.753124Q134.65938 37.753124 133.76875 36.76875Q132.89375 35.784374 132.87813 33.8625L132.87813 26.9875L134.69063 26.9875L134.69063 33.815624Q134.69063 36.20625 136.64375 36.20625Q138.70625 36.20625 139.39375 34.675L139.39375 26.9875L141.20625 26.9875L141.20625 37.55L139.4875 37.55L139.44063 36.503124ZM145.87813 37.55L144.08125 37.55L144.08125 26.9875L145.87813 26.9875L145.87813 37.55ZM143.925 24.175Q143.925 23.7375 144.19063 23.440624Q144.47188 23.128124 144.9875 23.128124Q145.51875 23.128124 145.78438 23.440624Q146.06563 23.7375 146.06563 24.175Q146.06563 24.6125 145.78438 24.909374Q145.51875 25.20625 144.9875 25.20625Q144.47188 25.20625 144.19063 24.909374Q143.925 24.6125 143.925 24.175ZM150.62813 26.9875L150.69063 28.315624Q151.89375 26.784374 153.84688 26.784374Q157.20625 26.784374 157.22188 30.565624L157.22188 37.55L155.425 37.55L155.425 30.55Q155.40938 29.409374 154.89375 28.8625Q154.39375 28.315624 153.3 28.315624Q152.425 28.315624 151.75313 28.784374Q151.09688 29.253124 150.72188 30.01875L150.72188 37.55L148.925 37.55L148.925 26.9875L150.62813 26.9875ZM161.01875 23.628124L160.81563 27.221874L159.55 27.221874L159.56563 22.55L161.01875 22.55L161.01875 23.628124ZM169.06563 34.753124Q169.06563 34.01875 168.51875 33.6125Q167.97188 33.20625 166.59688 32.909374Q165.22188 32.6125 164.40938 32.20625Q163.6125 31.8 163.22188 31.2375Q162.84688 30.659374 162.84688 29.878124Q162.84688 28.58125 163.94063 27.690624Q165.03438 26.784374 166.75313 26.784374Q168.55 26.784374 169.65938 27.721874Q170.78438 28.64375 170.78438 30.08125L168.95625 30.08125Q168.95625 29.346874 168.33125 28.815624Q167.70625 28.26875 166.75313 28.26875Q165.75313 28.26875 165.19063 28.70625Q164.64375 29.128124 164.64375 29.83125Q164.64375 30.471874 165.15938 30.815624Q165.675 31.14375 167.03438 31.45625Q168.39375 31.753124 169.22188 32.175Q170.06563 32.58125 170.47188 33.175Q170.87813 33.76875 170.87813 34.6125Q170.87813 36.034374 169.7375 36.89375Q168.6125 37.753124 166.8 37.753124Q165.53438 37.753124 164.55 37.3Q163.58125 36.846874 163.01875 36.05Q162.47188 35.2375 162.47188 34.3L164.28438 34.3Q164.33125 35.20625 165.00313 35.7375Q165.69063 36.26875 166.8 36.26875Q167.83125 36.26875 168.44063 35.8625Q169.06563 35.440624 169.06563 34.753124ZM188.70625 35.690624Q187.97188 36.721874 186.675 37.2375Q185.39375 37.753124 183.675 37.753124Q181.925 37.753124 180.58125 36.940624Q179.2375 36.1125 178.50313 34.6125Q177.76875 33.1125 177.7375 31.128124L177.7375 29.878124Q177.7375 26.675 179.2375 24.909374Q180.7375 23.128124 183.45625 23.128124Q185.675 23.128124 187.03438 24.26875Q188.39375 25.409374 188.70625 27.503124L186.83125 27.503124Q186.3 24.675 183.47188 24.675Q181.58125 24.675 180.6125 26.003124Q179.64375 27.33125 179.62813 29.83125L179.62813 31.003124Q179.62813 33.39375 180.72188 34.8Q181.81563 36.20625 183.675 36.20625Q184.7375 36.20625 185.51875 35.971874Q186.31563 35.7375 186.83125 35.190624L186.83125 31.9875L183.55 31.9875L183.55 30.471874L188.70625 30.471874L188.70625 35.690624ZM197.01875 28.596874Q196.6125 28.534374 196.14375 28.534374Q194.3625 28.534374 193.72188 30.05L193.72188 37.55L191.925 37.55L191.925 26.9875L193.675 26.9875L193.70625 28.20625Q194.59688 26.784374 196.22188 26.784374Q196.75313 26.784374 197.01875 26.925L197.01875 28.596874ZM205.44063 37.55Q205.28438 37.2375 205.19063 36.440624Q203.925 37.753124 202.175 37.753124Q200.6125 37.753124 199.6125 36.8625Q198.6125 35.971874 198.6125 34.6125Q198.6125 32.971874 199.8625 32.065624Q201.12813 31.14375 203.39375 31.14375L205.15938 31.14375L205.15938 30.315624Q205.15938 29.3625 204.58125 28.8Q204.01875 28.2375 202.925 28.2375Q201.95625 28.2375 201.3 28.7375Q200.64375 29.221874 200.64375 29.909374L198.83125 29.909374Q198.83125 29.128124 199.39375 28.39375Q199.95625 27.64375 200.90938 27.221874Q201.87813 26.784374 203.03438 26.784374Q204.8625 26.784374 205.89375 27.70625Q206.925 28.6125 206.97188 30.221874L206.97188 35.08125Q206.97188 36.534374 207.33125 37.39375L207.33125 37.55L205.44063 37.55ZM202.44063 36.175Q203.3 36.175 204.05 35.7375Q204.81563 35.3 205.15938 34.596874L205.15938 32.425L203.7375 32.425Q200.425 32.425 200.425 34.3625Q200.425 35.221874 200.9875 35.70625Q201.55 36.175 202.44063 36.175ZM209.47188 32.175Q209.47188 29.753124 210.62813 28.26875Q211.78438 26.784374 213.64375 26.784374Q215.50313 26.784374 216.58125 28.05L216.58125 22.55L218.39375 22.55L218.39375 37.55L216.7375 37.55L216.64375 36.409374Q215.56563 37.753124 213.62813 37.753124Q211.8 37.753124 210.62813 36.253124Q209.47188 34.7375 209.47188 32.315624L209.47188 32.175ZM211.28438 32.378124Q211.28438 34.175 212.01875 35.190624Q212.76875 36.20625 214.08125 36.20625Q215.8 36.20625 216.58125 34.675L216.58125 29.815624Q215.78438 28.315624 214.09688 28.315624Q212.76875 28.315624 212.01875 29.346874Q211.28438 30.378124 211.28438 32.378124ZM225.3 37.753124Q223.15938 37.753124 221.8 36.346874Q220.45625 34.925 220.45625 32.565624L220.45625 32.221874Q220.45625 30.659374 221.05 29.425Q221.65938 28.190624 222.7375 27.4875Q223.81563 26.784374 225.08125 26.784374Q227.14375 26.784374 228.28438 28.14375Q229.425 29.503124 229.425 32.034374L229.425 32.784374L222.26875 32.784374Q222.3 34.346874 223.175 35.315624Q224.05 36.26875 225.39375 36.26875Q226.3625 36.26875 227.01875 35.878124Q227.69063 35.4875 228.19063 34.846874L229.28438 35.70625Q227.95625 37.753124 225.3 37.753124ZM225.08125 28.26875Q223.9875 28.26875 223.2375 29.065624Q222.50313 29.8625 222.33125 31.3L227.6125 31.3L227.6125 31.159374Q227.53438 29.784374 226.8625 29.034374Q226.20625 28.26875 225.08125 28.26875ZM248.12813 37.55L246.2375 37.55L246.2375 30.971874L239.08125 30.971874L239.08125 37.55L237.20625 37.55L237.20625 23.33125L239.08125 23.33125L239.08125 29.440624L246.2375 29.440624L246.2375 23.33125L248.12813 23.33125L248.12813 37.55ZM252.87813 37.55L251.08125 37.55L251.08125 26.9875L252.87813 26.9875L252.87813 37.55ZM250.925 24.175Q250.925 23.7375 251.19063 23.440624Q251.47188 23.128124 251.9875 23.128124Q252.51875 23.128124 252.78438 23.440624Q253.06563 23.7375 253.06563 24.175Q253.06563 24.6125 252.78438 24.909374Q252.51875 25.20625 251.9875 25.20625Q251.47188 25.20625 251.19063 24.909374Q250.925 24.6125 250.925 24.175ZM262.0656 34.753124Q262.0656 34.01875 261.51874 33.6125Q260.97186 33.20625 259.59686 32.909374Q258.22186 32.6125 257.40936 32.20625Q256.6125 31.8 256.22186 31.2375Q255.84688 30.659374 255.84688 29.878124Q255.84688 28.58125 256.9406 27.690624Q258.03436 26.784374 259.7531 26.784374Q261.55 26.784374 262.65936 27.721874Q263.78436 28.64375 263.78436 30.08125L261.95624 30.08125Q261.95624 29.346874 261.33124 28.815624Q260.70624 28.26875 259.7531 28.26875Q258.7531 28.26875 258.1906 28.70625Q257.64374 29.128124 257.64374 29.83125Q257.64374 30.471874 258.15936 30.815624Q258.675 31.14375 260.03436 31.45625Q261.39374 31.753124 262.22186 32.175Q263.0656 32.58125 263.47186 33.175Q263.8781 33.76875 263.8781 34.6125Q263.8781 36.034374 262.7375 36.89375Q261.6125 37.753124 259.8 37.753124Q258.53436 37.753124 257.55 37.3Q256.58124 36.846874 256.01874 36.05Q255.47188 35.2375 255.47188 34.3L257.28436 34.3Q257.33124 35.20625 258.0031 35.7375Q258.6906 36.26875 259.8 36.26875Q260.83124 36.26875 261.4406 35.8625Q262.0656 35.440624 262.0656 34.753124ZM268.3625 24.425L268.3625 26.9875L270.34686 26.9875L270.34686 28.378124L268.3625 28.378124L268.3625 34.925Q268.3625 35.565624 268.6281 35.89375Q268.89374 36.20625 269.53436 36.20625Q269.84686 36.20625 270.39374 36.08125L270.39374 37.55Q269.675 37.753124 269.0031 37.753124Q267.8 37.753124 267.175 37.01875Q266.5656 36.284374 266.5656 34.925L266.5656 28.378124L264.64374 28.378124L264.64374 26.9875L266.5656 26.9875L266.5656 24.425L268.3625 24.425ZM272.4406 32.175Q272.4406 30.6125 273.05 29.378124Q273.65936 28.128124 274.7375 27.45625Q275.83124 26.784374 277.2375 26.784374Q279.39374 26.784374 280.72186 28.284374Q282.0656 29.76875 282.0656 32.253124L282.0656 32.378124Q282.0656 33.925 281.47186 35.159374Q280.8781 36.378124 279.76874 37.065624Q278.675 37.753124 277.2531 37.753124Q275.1125 37.753124 273.76874 36.253124Q272.4406 34.753124 272.4406 32.3L272.4406 32.175ZM274.2531 32.378124Q274.2531 34.14375 275.0656 35.20625Q275.89374 36.26875 277.2531 36.26875Q278.6281 36.26875 279.4406 35.190624Q280.2531 34.1125 280.2531 32.175Q280.2531 30.425 279.425 29.346874Q278.59686 28.26875 277.2375 28.26875Q275.89374 28.26875 275.0656 29.33125Q274.2531 30.39375 274.2531 32.378124ZM283.4875 32.175Q283.4875 29.70625 284.6281 28.253124Q285.76874 26.784374 287.65936 26.784374Q289.59686 26.784374 290.675 28.159374L290.76874 26.9875L292.40936 26.9875L292.40936 37.3Q292.40936 39.346874 291.1906 40.51875Q289.9875 41.70625 287.925 41.70625Q286.78436 41.70625 285.6906 41.221874Q284.59686 40.7375 284.01874 39.878124L284.95624 38.8Q286.1281 40.2375 287.8 40.2375Q289.1281 40.2375 289.8625 39.4875Q290.59686 38.753124 290.59686 37.409374L290.59686 36.4875Q289.51874 37.753124 287.64374 37.753124Q285.78436 37.753124 284.6281 36.253124Q283.4875 34.753124 283.4875 32.175ZM285.3 32.378124Q285.3 34.175 286.03436 35.190624Q286.76874 36.20625 288.08124 36.20625Q289.8 36.20625 290.59686 34.659374L290.59686 29.83125Q289.76874 28.315624 288.1125 28.315624Q286.78436 28.315624 286.03436 29.346874Q285.3 30.378124 285.3 32.378124ZM300.01874 28.596874Q299.6125 28.534374 299.14374 28.534374Q297.3625 28.534374 296.72186 30.05L296.72186 37.55L294.925 37.55L294.925 26.9875L296.675 26.9875L296.70624 28.20625Q297.59686 26.784374 299.22186 26.784374Q299.7531 26.784374 300.01874 26.925L300.01874 28.596874ZM308.4406 37.55Q308.28436 37.2375 308.1906 36.440624Q306.925 37.753124 305.175 37.753124Q303.6125 37.753124 302.6125 36.8625Q301.6125 35.971874 301.6125 34.6125Q301.6125 32.971874 302.8625 32.065624Q304.1281 31.14375 306.39374 31.14375L308.15936 31.14375L308.15936 30.315624Q308.15936 29.3625 307.58124 28.8Q307.01874 28.2375 305.925 28.2375Q304.95624 28.2375 304.3 28.7375Q303.64374 29.221874 303.64374 29.909374L301.83124 29.909374Q301.83124 29.128124 302.39374 28.39375Q302.95624 27.64375 303.90936 27.221874Q304.8781 26.784374 306.03436 26.784374Q307.8625 26.784374 308.89374 27.70625Q309.925 28.6125 309.97186 30.221874L309.97186 35.08125Q309.97186 36.534374 310.33124 37.39375L310.33124 37.55L308.4406 37.55ZM305.4406 36.175Q306.3 36.175 307.05 35.7375Q307.8156 35.3 308.15936 34.596874L308.15936 32.425L306.7375 32.425Q303.425 32.425 303.425 34.3625Q303.425 35.221874 303.9875 35.70625Q304.55 36.175 305.4406 36.175ZM314.6125 26.9875L314.65936 28.159374Q315.83124 26.784374 317.8 26.784374Q320.01874 26.784374 320.8156 28.4875Q321.34686 27.721874 322.1906 27.253124Q323.03436 26.784374 324.1906 26.784374Q327.65936 26.784374 327.72186 30.471874L327.72186 37.55L325.90936 37.55L325.90936 30.58125Q325.90936 29.440624 325.39374 28.878124Q324.8781 28.315624 323.65936 28.315624Q322.65936 28.315624 321.9875 28.925Q321.33124 29.51875 321.22186 30.534374L321.22186 37.55L319.40936 37.55L319.40936 30.628124Q319.40936 28.315624 317.14374 28.315624Q315.3625 28.315624 314.72186 29.83125L314.72186 37.55L312.90936 37.55L312.90936 26.9875L314.6125 26.9875Z" fill-rule="nonzero"/></svg>